<svg xmlns="http://www.w3.org/2000/svg" version="1.1" xmlns:xlink="http://www.w3.org/1999/xlink" width="2000" height="748" viewBox="0 0 2000 748"><svg xml:space="preserve" width="2000" height="748" data-version="2" data-id="lg_FsCnyQqezCoQ9hmytB" viewBox="0 0 661 748" x="0" y="0"><rect width="100%" height="100%" fill="transparent"></rect><path fill="#3b3b3b" d="M203.755 552.875q-17.18 0-25.28-7.46-8.1-7.46-8.1-20.96 0-13.35 8.07-20.85 8.06-7.5 25.31-7.5 17.32 0 25.39 7.5 8.06 7.5 8.06 20.85 0 13.57-8.03 21-8.02 7.42-25.42 7.42m0-15.3q8.32 0 12-3.18 3.67-3.19 3.67-9.94 0-6.6-3.67-9.83-3.68-3.22-12-3.22-8.25 0-11.93 3.22-3.67 3.23-3.67 9.83 0 6.67 3.67 9.9 3.68 3.22 11.93 3.22" paint-order="stroke"></path><rect width="66.83" height="56.77" x="-33.41" y="-28.39" fill="none" rx="0" ry="0" transform="translate(204.29 524.99)"></rect><path fill="#3b3b3b" d="M282.355 552.125q-3.53-6.37-11.7-19.5l-8.78 8.7v10.8h-18.67q.6-14.55.6-27.22 0-12.68-.6-27.23h18.67v21.98q13.8-13.65 19.65-21.98h24.3l-23.62 23.4q5.25 7.35 11.81 15.98 6.56 8.62 11.89 15.07Z" paint-order="stroke"></path><rect width="62.7" height="54.45" x="-31.35" y="-27.23" fill="none" rx="0" ry="0" transform="translate(275.06 525.4)"></rect><path fill="#3b3b3b" d="M355.475 512.605q-8.92-.45-13.2-.53v25.65q4.35-.07 13.2-.52v14.92h-43.57v-14.92q8.62.45 13.12.52v-25.65q-4.5.08-13.12.53v-14.93h43.57Z" paint-order="stroke"></path><rect width="43.57" height="54.45" x="-21.79" y="-27.23" fill="none" rx="0" ry="0" transform="translate(334.19 525.4)"></rect><path fill="#3b3b3b" d="M379.775 536.975q21.75-.15 36-.75-.97 3.83-1.2 7.35-.22 3.53-.22 8.55h-52.88q.6-14.55.6-27.22 0-12.68-.6-27.23h18.3Z" paint-order="stroke"></path><rect width="54.3" height="54.45" x="-27.15" y="-27.23" fill="none" rx="0" ry="0" transform="translate(389.13 525.4)"></rect><path fill="#3b3b3b" d="M451.405 552.875q-17.18 0-25.28-7.46-8.1-7.46-8.1-20.96 0-13.35 8.07-20.85 8.06-7.5 25.31-7.5 17.32 0 25.39 7.5 8.06 7.5 8.06 20.85 0 13.57-8.03 21-8.02 7.42-25.42 7.42m0-15.3q8.32 0 12-3.18 3.67-3.19 3.67-9.94 0-6.6-3.67-9.83-3.68-3.22-12-3.22-8.25 0-11.93 3.22-3.67 3.23-3.67 9.83 0 6.67 3.67 9.9 3.68 3.22 11.93 3.22" paint-order="stroke"></path><rect width="66.83" height="56.77" x="-33.41" y="-28.39" fill="none" rx="0" ry="0" transform="translate(451.94 524.99)"></rect><path fill="#3b3b3b" d="M49.945 605.825q-8.92-.45-13.2-.52v25.65q4.35-.08 13.2-.53v14.93H6.375v-14.93q8.62.45 13.12.53v-25.65q-4.5.07-13.12.52v-14.92h43.57Z" paint-order="stroke"></path><rect width="43.57" height="54.45" x="-21.79" y="-27.23" fill="none" rx="0" ry="0" transform="translate(28.66 618.63)"></rect><path fill="#3b3b3b" d="M118.875 590.975q-.53 12.68-.53 27.15 0 14.55.53 27.23h-26.85l-18.15-40.95 1.35 40.95h-19.28q.6-14.55.6-27.23 0-12.6-.6-27.15h27.6l18.23 42.08-1.28-42.08Z" paint-order="stroke"></path><rect width="62.93" height="54.38" x="-31.46" y="-27.19" fill="none" rx="0" ry="0" transform="translate(87.91 618.66)"></rect><path fill="#3b3b3b" d="M189.295 606.655q-11.77-.38-22.87-.45v39.15h-18.75v-39.15q-11.18.07-22.8.45v-15.75h64.42Z" paint-order="stroke"></path><rect width="64.42" height="54.45" x="-32.21" y="-27.23" fill="none" rx="0" ry="0" transform="translate(157.59 618.63)"></rect><path fill="#3b3b3b" d="M212.995 631.625q28.5-.15 41.33-.82-.53 3.07-.64 6.34-.11 3.26-.11 8.21h-58.28q.6-14.55.6-27.23 0-12.67-.6-27.22h58.28v13.57h-40.58v7.2q3.6.08 10.65.08 11.93 0 24.68-.45v12.9q-12.75-.45-24.68-.45-7.05 0-10.65.07Z" paint-order="stroke"></path><rect width="59.03" height="54.45" x="-29.52" y="-27.23" fill="none" rx="0" ry="0" transform="translate(225.31 618.63)"></rect><path fill="#3b3b3b" d="M291.225 614.305h32.02v31.05h-13.2l-1.57-13.28q-2.25 7.13-8.03 10.58-5.77 3.45-14.1 3.45-7.57 0-13.46-3.38-5.89-3.37-9.22-9.67-3.34-6.3-3.34-14.7 0-13.43 8.02-21.23 8.03-7.8 24.98-7.8 9.67 0 17.06 3.15 7.39 3.15 12.56 9.75-3.37 1.73-13.2 6.9l-1.87 1.05q-2.93-2.92-6.83-4.38-3.9-1.47-8.25-1.47-7.2 0-10.72 3.79-3.53 3.79-3.53 9.34 0 6 3.79 9.67 3.79 3.68 11.59 3.68 3.37 0 6.56-.98 3.19-.97 5.36-3.37h-14.62Z" paint-order="stroke"></path><rect width="62.92" height="56.78" x="-31.46" y="-28.39" fill="none" rx="0" ry="0" transform="translate(292.29 618.22)"></rect><path fill="#3b3b3b" d="M389.475 609.055q0 6.52-3.19 11.02t-10.91 6.53q.9 1.2 1.27 1.87l12.15 16.88h-20.4q-3.3-6.15-10.42-17.4h-11.03v17.4h-17.7q.6-14.55.6-27.23 0-12.67-.6-27.22h17.7v.07h15.38q15.15 0 21.15 4.88 6 4.87 6 13.2m-42.53-3.68v8.55h10.13q6.37 0 9.64-.41 3.26-.41 4.53-1.31 1.28-.9 1.28-2.63 0-1.65-1.2-2.55-1.2-.9-4.5-1.27-3.3-.38-9.75-.38Z" paint-order="stroke"></path><rect width="60.23" height="54.45" x="-30.11" y="-27.23" fill="none" rx="0" ry="0" transform="translate(359.86 618.63)"></rect><path fill="#3b3b3b" d="M438.295 645.355q-1.42-4.28-3.82-10.73h-23.93l-3.75 10.73h-18.82l21-54.45h27.6l21.15 54.45Zm-8.1-22.43q-2.85-7.87-5.85-15.75l-1.8-4.87q-2.62 6.82-7.72 20.62Z" paint-order="stroke"></path><rect width="69.75" height="54.45" x="-34.88" y="-27.23" fill="none" rx="0" ry="0" transform="translate(423.35 618.63)"></rect><path fill="#3b3b3b" d="M521.625 606.655q-11.78-.38-22.88-.45v39.15h-18.75v-39.15q-11.17.07-22.8.45v-15.75h64.43Z" paint-order="stroke"></path><rect width="64.43" height="54.45" x="-32.22" y="-27.23" fill="none" rx="0" ry="0" transform="translate(489.91 618.63)"></rect><path fill="#3b3b3b" d="M545.325 631.625q28.5-.15 41.32-.82-.52 3.07-.63 6.34-.12 3.26-.12 8.21h-58.27q.6-14.55.6-27.23 0-12.67-.6-27.22h58.27v13.57h-40.57v7.2q3.6.08 10.65.08 11.92 0 24.67-.45v12.9q-12.75-.45-24.67-.45-7.05 0-10.65.07Z" paint-order="stroke"></path><rect width="59.02" height="54.45" x="-29.51" y="-27.23" fill="none" rx="0" ry="0" transform="translate(557.63 618.63)"></rect><path fill="#3b3b3b" d="M616.645 590.075q14.1 0 22.28 3.42 8.17 3.41 11.44 9.45 3.26 6.03 3.26 14.81 0 8.32-3.75 14.55-3.75 6.22-11.25 9.64-7.5 3.41-18.45 3.41h-13.58q-6.9 0-13.95-.08.6-14.77.6-27.52 0-12.9-.6-26.93 8.93-.75 24-.75m5.63 40.35q6.97 0 9.3-3.37 2.32-3.38 2.32-9.3 0-5.7-2.43-9.23-2.44-3.52-9.19-3.52-7.28 0-10.88.45v24.97Z" paint-order="stroke"></path><rect width="60.98" height="55.28" x="-30.49" y="-27.64" fill="none" rx="0" ry="0" transform="translate(623.63 618.22)"></rect><path fill="#3b3b3b" d="M299.475 684.125q-.53 12.68-.53 27.23t.53 27.22h-17.63v-20.4h-27.6v20.4h-17.62q.6-14.55.6-27.22 0-12.68-.6-27.23h17.62v20.4h27.6v-20.4Z" paint-order="stroke"></path><rect width="62.85" height="54.45" x="-31.43" y="-27.23" fill="none" rx="0" ry="0" transform="translate(268.55 711.85)"></rect><path fill="#3b3b3b" d="M349.875 684.055h18.6v29.85q-.15 11.02-7.54 18.22-7.39 7.2-24.86 7.2-17.7 0-24.23-6.86-6.52-6.86-6.37-18.04v-30.37h18.6v29.17q0 3.3.49 5.37.48 2.06 3.15 3.86 2.66 1.8 8.58 1.8 6.45 0 9.45-1.84 3-1.84 3.57-4.09.56-2.25.56-5.77Z" paint-order="stroke"></path><rect width="63.04" height="55.27" x="-31.52" y="-27.64" fill="none" rx="0" ry="0" transform="translate(337.46 712.19)"></rect><path fill="#3b3b3b" d="M418.425 711.505q17.1 0 17.1 10.87 0 5.1-2.33 8.67-2.32 3.56-8.32 5.55-6 1.98-16.65 1.98h-33.75q.6-14.55.6-27.22 0-12.68-.6-27.23h17.62v.08h15.98q9.3 0 14.66 1.54 5.36 1.53 7.58 4.46 2.21 2.92 2.21 7.42 0 4.58-3.19 8.14-3.19 3.56-10.91 5.74m-26.33-13.65v6.97h14.4q4.65 0 6.49-.82 1.84-.83 1.84-3 0-1.73-1.91-2.44-1.92-.71-6.42-.71Zm14.4 27q3.9 0 5.97-.34 2.06-.34 2.96-1.2.9-.86.9-2.36 0-1.95-2.14-2.81-2.14-.87-7.69-.87h-14.4v7.58Z" paint-order="stroke"></path><rect width="61.05" height="54.45" x="-30.52" y="-27.23" fill="none" rx="0" ry="0" transform="translate(405.5 711.85)"></rect><path fill="#ff851b" d="M235.06 80.62a68.919 69.41-1.078 0 1 70.12 68.199l3.313 139.905 69.151-1.207-2.444-139.92C373.85 70.323 310.554 8.762 233.828 10.101S95.994 75.171 97.344 152.445l2.444 139.92 70.09-1.223-2.514-139.919c-.67-38.327 29.64-69.938 67.696-70.602"></path><path fill="#3d9970" d="M370.447 392.701a62.97 66.724 90 0 1-66.724-62.97l-.84-126.956h-66.96v126.956c0 70.115 60.23 126.956 134.524 126.956s134.524-56.841 134.524-126.956V202.775h-67.867l.067 126.956c0 34.776-29.875 62.97-66.724 62.97"></path></svg></svg>